<?xml version="1.0" encoding="utf-8"?>
<!-- Generator: Adobe Illustrator 16.0.1, SVG Export Plug-In . SVG Version: 6.00 Build 0)  -->
<!DOCTYPE svg PUBLIC "-//W3C//DTD SVG 1.1//EN" "http://www.w3.org/Graphics/SVG/1.1/DTD/svg11.dtd">
<svg version="1.1" xmlns="http://www.w3.org/2000/svg" xmlns:xlink="http://www.w3.org/1999/xlink" x="0px" y="0px" width="1920px"
	 height="1080px" viewBox="0 0 1920 1080" enable-background="new 0 0 1920 1080" xml:space="preserve">
<g id="Layer_6">
	<g>
		<path fill="#FFFFFF" d="M545.492,867.429c0,0,10.246-12.426,28.175-34.171c8.965-10.872,19.851-24.075,32.337-39.219
			c12.503-15.131,26.609-32.2,41.997-50.822c30.843-37.188,66.828-80.574,105.382-127.059
			c38.634-46.419,79.844-95.932,121.055-145.444c41.313-49.427,82.627-98.853,121.359-145.19
			c38.812-46.271,75.036-89.456,106.085-126.473c15.559-18.48,29.82-35.42,42.461-50.435c12.658-15.001,23.693-28.079,32.781-38.849
			c18.176-21.54,28.562-33.849,28.562-33.849s-10.245,12.426-28.174,34.172c-8.965,10.873-19.85,24.076-32.336,39.22
			c-12.503,15.13-26.609,32.201-41.997,50.823c-30.844,37.188-66.828,80.573-105.384,127.058
			c-38.635,46.418-79.845,95.93-121.056,145.442c-41.314,49.426-82.628,98.853-121.36,145.189
			c-38.812,46.27-75.037,89.455-106.086,126.472c-15.559,18.479-29.82,35.42-42.461,50.435
			c-12.658,15.002-23.692,28.08-32.78,38.851C555.878,855.12,545.492,867.429,545.492,867.429z"/>
	</g>
</g>
<g id="Layer_5">
	<g>
		<path fill="#FFFFFF" d="M1273.563,76.99c0,0-11.09,13.438-30.497,36.955c-19.421,23.506-47.164,57.085-80.456,97.381
			c-33.377,40.225-72.316,87.155-114.038,137.436c-41.801,50.215-86.389,103.777-130.976,157.339
			c-44.691,53.477-89.382,106.952-131.28,157.086c-41.978,50.067-81.158,96.796-114.74,136.85
			c-16.825,19.999-32.248,38.331-45.918,54.58c-13.687,16.234-25.62,30.389-35.446,42.044
			c-19.653,23.312-30.884,36.633-30.884,36.633s11.089-13.438,30.496-36.956c9.703-11.759,21.486-26.037,35.001-42.415
			c13.532-16.364,28.799-34.826,45.454-54.967c33.377-40.226,72.317-87.154,114.038-137.436
			c41.801-50.214,86.39-103.776,130.978-157.338c44.692-53.476,89.383-106.951,131.282-157.084
			c41.979-50.067,81.158-96.796,114.741-136.849c33.667-39.983,61.724-73.302,81.363-96.625
			C1262.334,90.312,1273.563,76.99,1273.563,76.99z"/>
	</g>
</g>
<g id="Layer_4">
	<g>
		<path fill="#FFFFFF" d="M1342.89,77.225c0,0-48.063,58.149-120.159,145.374c-36.14,43.537-78.301,94.329-123.475,148.75
			c-45.253,54.354-93.523,112.332-141.793,170.309c-48.374,57.892-96.747,115.782-142.098,170.055
			c-45.43,54.207-87.832,104.799-124.176,148.164c-72.873,86.576-121.454,144.294-121.454,144.294s48.063-58.15,120.157-145.376
			c36.139-43.536,78.301-94.328,123.475-148.748c45.254-54.354,93.524-112.331,141.795-170.308
			c48.375-57.891,96.749-115.781,142.099-170.054c45.431-54.206,87.833-104.798,124.178-148.163
			C1294.309,134.943,1342.89,77.225,1342.89,77.225z"/>
	</g>
</g>
<g id="Layer_3">
	<g>
		<path fill="#FFFFFF" d="M1354.499,147.863c0,0-11.09,13.438-30.497,36.955c-19.421,23.506-47.164,57.085-80.457,97.381
			c-33.377,40.225-72.316,87.155-114.037,137.436c-41.802,50.215-86.389,103.777-130.977,157.34
			c-44.691,53.477-89.383,106.952-131.281,157.086c-41.978,50.067-81.158,96.797-114.74,136.851
			c-16.825,19.998-32.248,38.331-45.918,54.58c-13.687,16.234-25.619,30.388-35.446,42.044
			c-19.653,23.312-30.884,36.633-30.884,36.633s11.089-13.438,30.496-36.956c9.703-11.759,21.486-26.037,35.001-42.415
			c13.532-16.364,28.799-34.827,45.454-54.968c33.377-40.225,72.317-87.154,114.039-137.436
			c41.802-50.214,86.39-103.776,130.978-157.338c44.692-53.476,89.384-106.952,131.283-157.085
			c41.979-50.067,81.158-96.796,114.741-136.849c33.667-39.983,61.724-73.302,81.362-96.625
			C1343.27,161.185,1354.499,147.863,1354.499,147.863z"/>
	</g>
</g>
<g id="Layer_2">
	<g>
		<path fill="#FFFFFF" d="M1373.731,212.656c0,0-10.245,12.426-28.175,34.171c-8.965,10.873-19.852,24.075-32.338,39.219
			c-12.503,15.13-26.608,32.201-41.997,50.823c-30.844,37.188-66.828,80.574-105.382,127.059
			c-38.635,46.418-79.845,95.932-121.055,145.444c-41.314,49.427-82.628,98.854-121.359,145.19
			c-38.812,46.271-75.036,89.457-106.085,126.474c-15.559,18.479-29.82,35.42-42.461,50.435
			c-12.658,15.002-23.693,28.079-32.781,38.85c-18.176,21.54-28.562,33.849-28.562,33.849s10.245-12.426,28.174-34.172
			c8.964-10.873,19.85-24.076,32.336-39.22c12.503-15.131,26.609-32.201,41.997-50.823c30.844-37.188,66.829-80.573,105.384-127.059
			c38.635-46.418,79.846-95.93,121.056-145.442c41.314-49.426,82.629-98.853,121.36-145.189
			c38.812-46.271,75.037-89.456,106.087-126.472c15.558-18.48,29.82-35.42,42.461-50.435c12.657-15.002,23.692-28.08,32.779-38.851
			C1363.346,224.965,1373.731,212.656,1373.731,212.656z"/>
	</g>
</g>
</svg>
