<?xml version="1.0" encoding="utf-8"?>
<!-- Generator: Adobe Illustrator 16.0.1, SVG Export Plug-In . SVG Version: 6.00 Build 0)  -->
<!DOCTYPE svg PUBLIC "-//W3C//DTD SVG 1.1//EN" "http://www.w3.org/Graphics/SVG/1.1/DTD/svg11.dtd">
<svg version="1.1" xmlns="http://www.w3.org/2000/svg" xmlns:xlink="http://www.w3.org/1999/xlink" x="0px" y="0px" width="1920px"
	 height="1080px" viewBox="0 0 1920 1080" enable-background="new 0 0 1920 1080" xml:space="preserve">
<g id="Layer_86">
</g>
<g id="Layer_85">
</g>
<g id="Layer_84">
</g>
<g id="Layer_83">
</g>
<g id="Layer_82">
</g>
<g id="Layer_81">
</g>
<g id="Layer_80">
</g>
<g id="Layer_79">
</g>
<g id="Layer_78">
</g>
<g id="Layer_77">
</g>
<g id="Layer_76">
</g>
<g id="Layer_75">
</g>
<g id="Layer_74">
</g>
<g id="Layer_73">
</g>
<g id="Layer_72">
</g>
<g id="Layer_71">
</g>
<g id="Layer_70">
</g>
<g id="Layer_69">
</g>
<g id="Layer_68">
</g>
<g id="Layer_67">
</g>
<g id="Layer_66">
</g>
<g id="Layer_65">
</g>
<g id="Layer_64">
</g>
<g id="Layer_63">
</g>
<g id="Layer_62">
</g>
<g id="Layer_61">
</g>
<g id="Layer_60">
</g>
<g id="Layer_59">
</g>
<g id="Layer_58">
</g>
<g id="Layer_57">
</g>
<g id="Layer_56">
</g>
<g id="Layer_55">
</g>
<g id="Layer_54">
</g>
<g id="Layer_53">
</g>
<g id="Layer_52">
</g>
<g id="Layer_51">
</g>
<g id="Layer_50">
</g>
<g id="Layer_49">
</g>
<g id="Layer_48">
</g>
<g id="Layer_47">
</g>
<g id="Layer_46">
</g>
<g id="Layer_45">
</g>
<g id="Layer_44">
</g>
<g id="Layer_43">
</g>
<g id="Layer_42">
</g>
<g id="Layer_41">
</g>
<g id="Layer_40">
</g>
<g id="Layer_39">
</g>
<g id="Layer_38">
</g>
<g id="Layer_37">
</g>
<g id="Layer_36">
</g>
<g id="Layer_35">
</g>
<g id="Layer_34">
</g>
<g id="Layer_33">
</g>
<g id="Layer_32">
</g>
<g id="Layer_31">
</g>
<g id="Layer_30">
</g>
<g id="Layer_29">
</g>
<g id="Layer_28">
</g>
<g id="Layer_27">
</g>
<g id="Layer_26">
</g>
<g id="Layer_25">
</g>
<g id="Layer_24">
</g>
<g id="Layer_23">
</g>
<g id="Layer_22">
</g>
<g id="Layer_21">
</g>
<g id="Layer_20">
</g>
<g id="Layer_19">
</g>
<g id="Layer_18">
</g>
<g id="Layer_17">
</g>
<g id="Layer_16">
</g>
<g id="Layer_15">
</g>
<g id="Layer_14">
</g>
<g id="Layer_13">
</g>
<g id="Layer_12">
</g>
<g id="Layer_11">
</g>
<g id="Layer_10">
</g>
<g id="Layer_9">
</g>
<g id="Layer_8">
</g>
<g id="Layer_7">
</g>
<g id="Layer_6">
</g>
<g id="Layer_5">
</g>
<g id="Layer_4">
</g>
<g id="Layer_3">
	<g>
		<path fill="#FFFFFF" d="M868.404,462.217c0-8.199-4.1-12.6-11.201-12.6h-9.5v25.502h9.102
			C864.404,475.12,868.404,470.618,868.404,462.217z"/>
		<path fill="#FFFFFF" d="M1338.77,428.651H567.998L485,526.85h771.314L1338.77,428.651z M725.807,514.221
			c-13.199,0-19.9-13.4-19.9-36.102c0-22.602,6.801-36.103,20.002-36.103c13.199,0,20,13.402,20,36.103
			C745.908,500.721,739.008,514.221,725.807,514.221z M773.408,513.122h-6.801l-16.402-70.004h7.102l9.301,42.602
			c1.4,6.5,2.6,13.201,3.4,18.4c0.799-5.199,2.1-12,3.5-18.4l9.301-42.602h7L773.408,513.122z M831.707,513.122h-31.104v-70.004
			h29.902v6.5h-22.9v22.801h14.4v6.6h-14.4v27.604h24.102V513.122z M867.904,513.122l-10.5-31.803c-0.9,0.1-8.4,0.1-9.701,0.1
			v31.703h-7v-70.004h16.801c10.102,0,17.9,6,17.9,18.702c0,9.199-4.299,15.1-10.799,17.801l11,33.502H867.904z M947.404,513.122
			h-6.5l-6.301-34.502c-1.1-6.002-2.699-16.301-3.301-22.701c-0.6,6.4-2.199,16.801-3.299,22.701l-6.301,34.502h-6.301
			l-10.701-70.004h6.701l5.6,40.903c0.701,4.799,1.602,12.199,1.9,16.201c0.4-4.002,1.701-11.502,2.5-16.201l7.102-40.903h5.9
			l7.199,40.903c0.801,4.699,2,12.199,2.4,16.201c0.4-4.002,1.201-11.402,1.9-16.201l5.6-40.903h6.701L947.404,513.122z
			 M993.502,513.122l-4.1-18.201h-18.301l-4.201,18.201H960l16.602-70.004h7.4l16.6,70.004H993.502z M1035.701,449.518H1021.5
			v63.604h-6.9v-63.604h-14.1v-6.401h35.201V449.518z M1077,513.122h-31.102v-70.004h29.902v6.5h-22.902v22.801h14.4v6.6h-14.4
			v27.604H1077V513.122z M1113.199,513.122l-10.502-31.803c-0.898,0.1-8.4,0.1-9.699,0.1v31.703h-7.002v-70.004h16.803
			c10.1,0,17.9,6,17.9,18.702c0,9.199-4.301,15.1-10.801,17.801l11,33.502H1113.199z"/>
		<path fill="#FFFFFF" d="M980.201,451.817c-0.699,5.201-2.301,12.701-3.801,19.201l-3.9,17.402h15.402l-3.9-17.502
			C982.502,464.319,981.002,457.018,980.201,451.817z"/>
		<path fill="#FFFFFF" d="M725.707,448.518c-7.801,0-12.801,10-12.801,29.602c0,19.5,5.201,29.602,13.102,29.602
			c7.801,0,12.9-10.002,12.9-29.602C738.908,458.618,733.607,448.518,725.707,448.518z"/>
		<path fill="#FFFFFF" d="M1113.699,462.217c0-8.199-4.102-12.6-11.201-12.6h-9.5v25.502h9.1
			C1109.699,475.12,1113.699,470.618,1113.699,462.217z"/>
	</g>
</g>
<g id="Layer_2">
</g>
</svg>
