<?xml version="1.0" encoding="utf-8"?>
<!-- Generator: Adobe Illustrator 16.0.1, SVG Export Plug-In . SVG Version: 6.00 Build 0)  -->
<!DOCTYPE svg PUBLIC "-//W3C//DTD SVG 1.1//EN" "http://www.w3.org/Graphics/SVG/1.1/DTD/svg11.dtd">
<svg version="1.1" xmlns="http://www.w3.org/2000/svg" xmlns:xlink="http://www.w3.org/1999/xlink" x="0px" y="0px" width="1920px"
	 height="1080px" viewBox="0 0 1920 1080" enable-background="new 0 0 1920 1080" xml:space="preserve">
<g id="Layer_86">
</g>
<g id="Layer_85">
</g>
<g id="Layer_84">
</g>
<g id="Layer_83">
</g>
<g id="Layer_82">
</g>
<g id="Layer_81">
</g>
<g id="Layer_80">
</g>
<g id="Layer_79">
</g>
<g id="Layer_78">
</g>
<g id="Layer_77">
</g>
<g id="Layer_76">
</g>
<g id="Layer_75">
</g>
<g id="Layer_74">
</g>
<g id="Layer_73">
</g>
<g id="Layer_72">
</g>
<g id="Layer_71">
</g>
<g id="Layer_70">
</g>
<g id="Layer_69">
</g>
<g id="Layer_68">
</g>
<g id="Layer_67">
</g>
<g id="Layer_66">
</g>
<g id="Layer_65">
</g>
<g id="Layer_64">
</g>
<g id="Layer_63">
</g>
<g id="Layer_62">
</g>
<g id="Layer_61">
</g>
<g id="Layer_60">
</g>
<g id="Layer_59">
</g>
<g id="Layer_58">
</g>
<g id="Layer_57">
</g>
<g id="Layer_56">
</g>
<g id="Layer_55">
</g>
<g id="Layer_54">
</g>
<g id="Layer_53">
</g>
<g id="Layer_52">
</g>
<g id="Layer_51">
</g>
<g id="Layer_50">
</g>
<g id="Layer_49">
</g>
<g id="Layer_48">
</g>
<g id="Layer_47">
</g>
<g id="Layer_46">
</g>
<g id="Layer_45">
</g>
<g id="Layer_44">
</g>
<g id="Layer_43">
</g>
<g id="Layer_42">
</g>
<g id="Layer_41">
</g>
<g id="Layer_40">
</g>
<g id="Layer_39">
</g>
<g id="Layer_38">
</g>
<g id="Layer_37">
</g>
<g id="Layer_36">
</g>
<g id="Layer_35">
</g>
<g id="Layer_34">
</g>
<g id="Layer_33">
</g>
<g id="Layer_32">
</g>
<g id="Layer_31">
</g>
<g id="Layer_30">
</g>
<g id="Layer_29">
</g>
<g id="Layer_28">
</g>
<g id="Layer_27">
</g>
<g id="Layer_26">
</g>
<g id="Layer_25">
</g>
<g id="Layer_24">
</g>
<g id="Layer_23">
</g>
<g id="Layer_22">
</g>
<g id="Layer_21">
</g>
<g id="Layer_20">
</g>
<g id="Layer_19">
</g>
<g id="Layer_18">
</g>
<g id="Layer_17">
</g>
<g id="Layer_16">
</g>
<g id="Layer_15">
</g>
<g id="Layer_14">
</g>
<g id="Layer_13">
</g>
<g id="Layer_12">
</g>
<g id="Layer_11">
</g>
<g id="Layer_10">
</g>
<g id="Layer_9">
</g>
<g id="Layer_8">
</g>
<g id="Layer_7">
</g>
<g id="Layer_6">
</g>
<g id="Layer_5">
</g>
<g id="Layer_4">
</g>
<g id="Layer_3">
</g>
<g id="Layer_2">
	<g>
		<path fill="#FFFFFF" d="M948.25,503.436c0-8.199-4.1-12.6-11.201-12.6h-9.5v25.502h9.102
			C944.25,516.338,948.25,511.836,948.25,503.436z"/>
		<path fill="#FFFFFF" d="M848.051,490.836h-6.299v57.004h6.199c9.602,0,15.602-7.9,15.602-28.703
			C863.553,500.035,858.252,490.836,848.051,490.836z"/>
		<path fill="#FFFFFF" d="M585.496,469.904l-82.998,98.2h771.314l82.453-98.2H585.496z M774.654,533.338
			c0,14.002-6.701,22.102-18.301,22.102c-11.502,0-18.102-8-18.102-22.002v-49.102h6.9v48.903c0,10.1,4,15.701,11.5,15.701
			c7.4,0,11.002-5.5,11.002-15.602v-49.002h7V533.338z M822.754,554.34h-5.9l-16.801-38.402c-2.5-5.801-5.5-12.801-7.201-17.201
			c0,2.699,0.1,9.4,0.1,13.6v42.004h-6.6v-70.004h6.801l15.9,36.602c2.701,6.301,5.701,13.301,7.301,17.201
			c-0.1-2.6-0.201-9.4-0.201-13.602v-40.202h6.602V554.34z M847.252,554.34H834.75v-70.004h13.602
			c14.801,0,22.201,11.901,22.201,34.502C870.553,543.338,861.752,554.34,847.252,554.34z M911.553,554.34h-31.104v-70.004h29.902
			v6.5h-22.9v22.801h14.4v6.6h-14.4v27.604h24.102V554.34z M947.75,554.34l-10.5-31.803c-0.9,0.1-8.4,0.1-9.701,0.1v31.703h-7
			v-70.004h16.801c10.102,0,17.9,6,17.9,18.702c0,9.199-4.299,15.1-10.799,17.801l11,33.502H947.75z M1017.85,490.836h-22.801
			v23.602h14.6v6.6h-14.6v33.303h-7.002v-70.004h29.803V490.836z M1035.848,554.34h-7v-70.004h7V554.34z M1073.549,554.34
			l-10.502-31.803c-0.898,0.1-8.4,0.1-9.699,0.1v31.703h-7.002v-70.004h16.803c10.1,0,17.9,6,17.9,18.702
			c0,9.199-4.301,15.1-10.801,17.801l11,33.502H1073.549z M1121.949,554.34h-31.104v-70.004h29.902v6.5h-22.9v22.801h14.4v6.6h-14.4
			v27.604h24.102V554.34z"/>
		<path fill="#FFFFFF" d="M1074.049,503.436c0-8.199-4.102-12.6-11.201-12.6h-9.5v25.502h9.1
			C1070.049,516.338,1074.049,511.836,1074.049,503.436z"/>
	</g>
</g>
</svg>
