<?xml version="1.0" encoding="utf-8"?>
<!-- Generator: Adobe Illustrator 16.0.1, SVG Export Plug-In . SVG Version: 6.00 Build 0)  -->
<!DOCTYPE svg PUBLIC "-//W3C//DTD SVG 1.1//EN" "http://www.w3.org/Graphics/SVG/1.1/DTD/svg11.dtd">
<svg version="1.1" xmlns="http://www.w3.org/2000/svg" xmlns:xlink="http://www.w3.org/1999/xlink" x="0px" y="0px" width="1920px"
	 height="1080px" viewBox="0 0 1920 1080" enable-background="new 0 0 1920 1080" xml:space="preserve">
<g id="Layer_86">
	
		<circle opacity="0.6" fill="none" stroke="#FFFFFF" stroke-width="5" stroke-miterlimit="10" cx="833.634" cy="510.508" r="291.677"/>
</g>
<g id="Layer_85">
	<polygon fill="#FFFFFF" points="955.386,640.865 1186.576,640.865 1161.846,670.32 930.492,670.32 	"/>
</g>
<g id="Layer_84">
	<path opacity="0.6" fill="#FFFFFF" d="M862.346,418.297c-0.701,5.2-2.301,12.701-3.801,19.201l-3.9,17.401h15.4l-3.9-17.501
		C864.645,430.798,863.145,423.498,862.346,418.297z"/>
</g>
<g id="Layer_83">
	<path opacity="0.6" fill="#FFFFFF" d="M888.395,551.197c0-8.199-4.102-12.6-11.201-12.6h-9.5V564.1h9.1
		C884.395,564.1,888.395,559.598,888.395,551.197z"/>
</g>
<g id="Layer_82">
	<path opacity="0.6" fill="#FFFFFF" d="M750.549,428.698c0-8.2-4.102-12.601-11.201-12.601h-9.5v25.502h9.1
		C746.549,441.599,750.549,437.098,750.549,428.698z"/>
</g>
<g id="Layer_81">
	<path opacity="0.6" fill="#FFFFFF" d="M607.852,414.998c-7.801,0-12.801,10-12.801,29.602c0,19.501,5.2,29.602,13.101,29.602
		c7.801,0,12.9-10.001,12.9-29.602C621.052,425.098,615.752,414.998,607.852,414.998z"/>
</g>
<g id="Layer_80">
	<path opacity="0.6" fill="#FFFFFF" d="M995.842,428.698c0-8.2-4.1-12.601-11.201-12.601h-9.5v25.502h9.102
		C991.842,441.599,995.842,437.098,995.842,428.698z"/>
</g>
<g id="Layer_79">
	<path opacity="0.6" fill="#FFFFFF" d="M833.632,242.446c-148.047,0-268.062,120.016-268.062,268.062
		c0,148.046,120.016,268.064,268.062,268.064c148.049,0,268.065-120.018,268.065-268.064
		C1101.697,362.461,981.682,242.446,833.632,242.446z M682.749,409.597h29.902v6.5h-22.902v22.802h14.4v6.6h-14.4v27.603h24.102v6.5
		h-31.102V409.597z M607.951,480.701c-13.2,0-19.901-13.4-19.901-36.102c0-22.602,6.801-36.103,20.002-36.103
		c13.2,0,20.001,13.401,20.001,36.103C628.053,467.201,621.152,480.701,607.951,480.701z M655.552,479.601h-6.801l-16.401-70.004
		h7.101l9.301,42.603c1.4,6.5,2.601,13.2,3.4,18.4c0.8-5.2,2.1-12,3.5-18.4l9.3-42.603h7L655.552,479.601z M714.799,581.1
		c0,14.002-6.701,22.102-18.303,22.102c-11.5,0-18.1-8-18.1-22.002v-49.102h6.9V581c0,10.1,4,15.701,11.5,15.701
		c7.4,0,11-5.5,11-15.602v-49.002h7.002V581.1z M722.846,409.597h16.803c10.1,0,17.9,6,17.9,18.701
		c0,9.2-4.301,15.101-10.801,17.801l11,33.502h-7.699l-10.502-31.802c-0.898,0.1-8.4,0.1-9.699,0.1v31.702h-7.002V409.597z
		 M762.897,602.102h-5.9l-16.801-38.402c-2.5-5.801-5.5-12.801-7.199-17.201c0,2.699,0.1,9.4,0.1,13.6v42.004h-6.602v-70.004h6.801
		l15.902,36.602c2.699,6.301,5.699,13.301,7.299,17.201c-0.1-2.6-0.199-9.4-0.199-13.602v-40.202h6.6V602.102z M787.395,602.102
		h-12.5v-70.004h13.602c14.801,0,22.201,11.901,22.201,34.502C810.698,591.1,801.897,602.102,787.395,602.102z M813.448,422.398
		c-0.6,6.4-2.201,16.801-3.301,22.701l-6.301,34.502h-6.299l-10.701-70.004h6.699l5.602,40.902c0.699,4.8,1.6,12.2,1.9,16.201
		c0.4-4.001,1.699-11.501,2.5-16.201l7.1-40.902h5.9l7.201,40.902c0.799,4.7,2,12.2,2.4,16.201c0.4-4.001,1.199-11.401,1.9-16.201
		l5.6-40.902h6.701l-10.801,70.004h-6.502l-6.299-34.502C815.647,439.098,814.047,428.798,813.448,422.398z M851.696,602.102
		h-31.102v-70.004h29.902v6.5h-22.902v22.801h14.4v6.6h-14.4v27.604h24.102V602.102z M849.043,479.601h-6.9l16.602-70.004h7.4
		l16.602,70.004h-7.1l-4.102-18.201h-18.301L849.043,479.601z M887.895,602.102l-10.502-31.803c-0.898,0.1-8.4,0.1-9.699,0.1v31.703
		h-7.002v-70.004h16.803c10.1,0,17.9,6,17.9,18.702c0,9.199-4.301,15.1-10.801,17.801l11,33.502H887.895z M917.846,415.998h-14.201
		v63.604h-6.9v-63.604h-14.102v-6.4h35.203V415.998z M957.995,538.598h-22.803v23.602h14.602v6.6h-14.602v33.303h-7v-70.004h29.803
		V538.598z M959.145,479.601h-31.104v-70.004h29.902v6.5h-22.9v22.802h14.4v6.6h-14.4v27.603h24.102V479.601z M975.992,602.102
		h-7.002v-70.004h7.002V602.102z M975.141,447.899v31.702h-7v-70.004h16.801c10.102,0,17.9,6,17.9,18.701
		c0,9.2-4.299,15.101-10.799,17.801l11,33.502h-7.701l-10.5-31.802C983.941,447.899,976.441,447.899,975.141,447.899z
		 M1013.691,602.102l-10.5-31.803c-0.9,0.1-8.4,0.1-9.701,0.1v31.703h-7v-70.004h16.801c10.102,0,17.9,6,17.9,18.702
		c0,9.199-4.299,15.1-10.799,17.801l11,33.502H1013.691z M1030.99,602.102v-70.004h29.902v6.5h-22.902v22.801h14.4v6.6h-14.4v27.604
		h24.102v6.5H1030.99z"/>
</g>
<g id="Layer_78">
	<path opacity="0.6" fill="#FFFFFF" d="M788.196,538.598h-6.301v57.004h6.201c9.6,0,15.6-7.9,15.6-28.703
		C803.696,547.797,798.397,538.598,788.196,538.598z"/>
</g>
<g id="Layer_77">
	<path opacity="0.6" fill="#FFFFFF" d="M1014.191,551.197c0-8.199-4.1-12.6-11.201-12.6h-9.5V564.1h9.102
		C1010.191,564.1,1014.191,559.598,1014.191,551.197z"/>
</g>
<g id="Layer_76">
	<path fill="#FFFFFF" d="M733.774,548.174c-0.254,0.305-0.508,0.609-0.76,0.914c0.012,1.309,0.027,2.816,0.041,4.357
		c0.643-0.768,1.285-1.537,1.928-2.307C734.551,550.096,734.145,549.102,733.774,548.174z"/>
</g>
<g id="Layer_75">
	<path fill="#FFFFFF" d="M739.399,545.855c17.229-20.616,34.619-41.425,52.014-62.238c1.912-2.299,3.826-4.597,5.738-6.895
		l-0.6-3.926c-2.479,2.967-4.959,5.935-7.439,8.902c-17.045,20.476-34.09,40.95-50.98,61.24L739.399,545.855z"/>
</g>
<g id="Layer_74">
	<path fill="#FFFFFF" d="M678.795,531.805h3.609c14.482-17.326,29.148-34.871,43.879-52.496h-3.438v-0.427
		C708.053,496.655,693.331,514.344,678.795,531.805z"/>
</g>
<g id="Layer_73">
	<path fill="#FFFFFF" d="M726.495,556.918c-3.908,4.695-7.811,9.381-11.695,14.049v4.324c3.887-4.65,7.785-9.316,11.695-13.994
		V556.918z"/>
</g>
<g id="Layer_72">
	<path fill="#FFFFFF" d="M931.276,479.309c-14.992,17.938-30.129,36.051-45.307,54.213c0.916,0.419,1.775,0.927,2.584,1.503
		c15.541-18.67,31.039-37.286,46.379-55.716H931.276z"/>
</g>
<g id="Layer_71">
	<path fill="#FFFFFF" d="M820.594,531.805h0.129c3.518-4.21,7.037-8.421,10.555-12.633c14.021-16.841,28.041-33.678,41.988-50.43
		l-0.797-3.535c-14.443,17.284-28.967,34.665-43.492,52.047c-7.371,8.854-14.74,17.706-22.102,26.546
		c0.445,0.98,0.854,2.016,1.221,3.113c4.164-4.98,8.33-9.967,12.498-14.955V531.805z"/>
</g>
<g id="Layer_70">
	<path fill="#FFFFFF" d="M762.897,601.008c3.99-4.775,7.988-9.561,11.998-14.357v-4.439c-4.01,4.816-8.008,9.617-11.998,14.412
		V601.008z"/>
</g>
<g id="Layer_69">
	<path fill="#FFFFFF" d="M729.848,475.045c4.486-5.367,8.977-10.74,13.471-16.116l-1.098-3.325
		c-4.127,4.958-8.252,9.914-12.373,14.865V475.045z"/>
</g>
<g id="Layer_68">
	<path fill="#FFFFFF" d="M707.797,580.809v-1.43c-4.656,5.592-9.289,11.158-13.904,16.701c0.902,0.211,1.867,0.328,2.904,0.328
		c0.127,0,0.244-0.014,0.367-0.018c3.49-4.176,6.99-8.361,10.504-12.568C707.749,582.865,707.797,581.867,707.797,580.809z"/>
</g>
<g id="Layer_67">
	<path fill="#FFFFFF" d="M860.692,563.811c-8.756,10.518-17.502,21.023-26.223,31.498h3.766c7.471-8.938,14.961-17.9,22.457-26.869
		V563.811z"/>
</g>
<g id="Layer_66">
	<path fill="#FFFFFF" d="M801.711,550.002c-6.619,7.951-13.227,15.887-19.816,23.803v4.467c6.879-8.232,13.777-16.488,20.689-24.76
		C802.336,552.264,802.045,551.094,801.711,550.002z"/>
</g>
<g id="Layer_65">
	<path fill="#FFFFFF" d="M806.333,465.695c3.893-4.677,7.783-9.351,11.67-14.019l-0.682-3.731
		c-3.303,3.951-6.605,7.905-9.914,11.862L806.333,465.695z"/>
</g>
<g id="Layer_64">
	<path fill="#FFFFFF" d="M830.52,432.151c-2.736,3.275-5.477,6.554-8.219,9.836l0.656,3.735c2.279-2.736,4.555-5.47,6.828-8.202
		L830.52,432.151z"/>
</g>
<g id="Layer_63">
	<path fill="#FFFFFF" d="M903.645,432.253c4.609-5.536,9.199-11.05,13.777-16.548h-3.59c-3.387,4.055-6.783,8.118-10.188,12.193
		V432.253z"/>
</g>
<g id="Layer_62">
	<path fill="#FFFFFF" d="M499.473,832.135c13.671-16.25,29.094-34.582,45.918-54.58c33.583-40.055,72.763-86.783,114.741-136.85
		c10.494-12.557,21.164-25.324,31.962-38.246c-0.984-0.209-1.92-0.494-2.807-0.846c-10.523,12.641-20.924,25.135-31.155,37.424
		c-41.721,50.281-80.661,97.211-114.038,137.436c-16.655,20.141-31.922,38.604-45.454,54.967
		c-13.516,16.379-25.298,30.656-35.001,42.416c-19.407,23.518-30.496,36.955-30.496,36.955s11.23-13.32,30.884-36.633
		C473.854,862.521,485.786,848.369,499.473,832.135z"/>
</g>
<g id="Layer_61">
	<path fill="#FFFFFF" d="M689.18,689.229c23.668-28.324,48.162-57.639,73.047-87.42h-3.648
		c-24.318,29.207-48.254,57.955-71.396,85.752c-45.174,54.42-87.336,105.213-123.475,148.748
		C491.613,923.535,443.55,981.686,443.55,981.686s48.581-57.719,121.454-144.295C601.348,794.025,643.75,743.434,689.18,689.229z"/>
</g>
<g id="Layer_60">
	<path fill="#FFFFFF" d="M747.774,448.932l1.1,3.351c0.697-0.835,1.395-1.669,2.092-2.503
		c41.211-49.512,82.422-99.025,121.055-145.443c38.555-46.485,74.539-89.871,105.382-127.059
		c15.389-18.622,29.494-35.692,41.998-50.823c12.486-15.144,23.373-28.346,32.338-39.219c17.93-21.745,28.174-34.171,28.174-34.171
		s-10.385,12.309-28.561,33.85c-9.086,10.771-20.121,23.849-32.779,38.85c-12.641,15.015-26.902,31.955-42.461,50.436
		c-31.048,37.016-67.273,80.202-106.085,126.472c-38.732,46.337-80.047,95.763-121.361,145.189
		C748.368,448.218,748.071,448.576,747.774,448.932z"/>
</g>
<g id="Layer_59">
	<path fill="#FFFFFF" d="M878.694,462.222c6.035-7.248,12.053-14.477,18.051-21.681v-4.385c-6.27,7.503-12.562,15.034-18.875,22.588
		L878.694,462.222z"/>
</g>
<g id="Layer_58">
	<path fill="#FFFFFF" d="M1218.986,224.023c-9.086,10.771-20.121,23.849-32.779,38.85c-12.641,15.015-26.902,31.956-42.461,50.436
		c-31.049,37.016-67.273,80.201-106.086,126.472c-25.672,30.711-52.479,62.782-79.666,95.308v3.216h-2.689
		c-6.559,7.848-13.139,15.719-19.729,23.602h3.816c34.214-41.107,68.13-81.855,100.261-120.461
		c38.555-46.485,74.539-89.871,105.383-127.06c15.389-18.621,29.494-35.692,41.998-50.822
		c12.486-15.144,23.373-28.346,32.338-39.219c17.93-21.745,28.174-34.171,28.174-34.171S1237.162,202.482,1218.986,224.023z"/>
</g>
<g id="Layer_57">
	<path fill="#FFFFFF" d="M928.192,570.742c-3.963,4.74-7.928,9.484-11.893,14.227c-41.211,49.514-82.42,99.025-121.057,145.443
		c-38.555,46.484-74.539,89.871-105.383,127.059c-15.389,18.621-29.495,35.691-41.997,50.822
		c-12.486,15.145-23.372,28.348-32.337,39.221c-17.929,21.746-28.174,34.172-28.174,34.172s10.386-12.309,28.562-33.85
		c9.088-10.77,20.123-23.848,32.781-38.848c12.641-15.016,26.903-31.957,42.461-50.436c31.049-37.018,67.273-80.203,106.086-126.473
		c38.73-46.338,80.045-95.766,121.357-145.191c3.197-3.842,6.395-7.682,9.592-11.523V570.742z"/>
</g>
<g id="Layer_56">
	<path fill="#FFFFFF" d="M741.067,711.578c29.518-35.318,60.422-72.301,91.736-109.77h-3.744
		c-30.717,36.898-61.023,73.305-89.992,108.104c-41.721,50.281-80.661,97.209-114.039,137.434
		c-16.655,20.141-31.922,38.604-45.454,54.969c-13.516,16.377-25.298,30.656-35.001,42.414
		c-19.407,23.518-30.496,36.957-30.496,36.957s11.23-13.322,30.884-36.633c9.826-11.656,21.759-25.811,35.445-42.045
		c13.671-16.248,29.094-34.58,45.919-54.58C659.908,808.375,699.088,761.645,741.067,711.578z"/>
</g>
<g id="Layer_55">
	<path fill="#FFFFFF" d="M481.061,771.879c12.641-15.016,26.902-31.955,42.461-50.436c31.049-37.016,67.273-80.201,106.086-126.473
		c15.887-19.006,32.212-38.537,48.79-58.371v-4.314c-17.266,20.744-34.264,41.166-50.789,61.019
		c-38.555,46.484-74.54,89.869-105.384,127.057c-15.388,18.623-29.494,35.693-41.996,50.824
		c-12.486,15.143-23.372,28.346-32.337,39.219c-17.929,21.746-28.174,34.172-28.174,34.172s10.386-12.309,28.562-33.848
		C457.367,799.957,468.402,786.881,481.061,771.879z"/>
</g>
<g id="Layer_54">
	<path fill="#FFFFFF" d="M975.141,431.008c4.156-4.993,8.299-9.97,12.412-14.911c-0.906-0.187-1.873-0.292-2.912-0.292h-0.293
		c-3.057,3.657-6.127,7.332-9.207,11.018V431.008z"/>
</g>
<g id="Layer_53">
	<path fill="#FFFFFF" d="M968.141,435.199c-10.373,12.411-20.861,24.961-31.431,37.61h3.635
		c9.34-11.221,18.613-22.359,27.796-33.392V435.199z"/>
</g>
<g id="Layer_52">
	<path fill="#FFFFFF" d="M881.43,538.953c-3.795,4.539-7.588,9.078-11.385,13.619c-0.783,0.943-1.568,1.885-2.352,2.826v4.662
		c1.551-1.855,3.102-3.711,4.652-5.568c3.928-4.719,7.855-9.436,11.781-14.152C883.333,539.748,882.43,539.287,881.43,538.953z"/>
</g>
<g id="Layer_51">
	<path fill="#FFFFFF" d="M971.076,347.2c-17.355,20.771-35.158,42.075-53.23,63.704v4.293c18.758-22.53,37.232-44.721,55.226-66.333
		c45.172-54.42,87.334-105.212,123.473-148.749c72.098-87.224,120.16-145.374,120.16-145.374s-48.58,57.718-121.451,144.296
		C1058.91,242.402,1016.508,292.995,971.076,347.2z"/>
</g>
<g id="Layer_50">
	<path fill="#FFFFFF" d="M1117.361,259.717c33.293-40.296,61.035-73.875,80.457-97.381c19.406-23.517,30.496-36.955,30.496-36.955
		s-11.229,13.321-30.883,36.634c-19.639,23.323-47.695,56.642-81.361,96.625c-33.584,40.054-72.764,86.783-114.742,136.85
		c-3.947,4.723-7.926,9.483-11.92,14.263c0.963,0.193,1.896,0.443,2.787,0.77c3.727-4.478,7.441-8.94,11.127-13.368
		C1045.045,346.872,1083.984,299.942,1117.361,259.717z"/>
</g>
<g id="Layer_49">
	<path fill="#FFFFFF" d="M920.393,324.614c-26.498,31.707-54.115,64.752-82.141,98.286l-0.844,5.462
		c29-34.836,57.59-69.181,84.98-102.084c41.72-50.281,80.66-97.21,114.037-137.435c33.293-40.296,61.035-73.875,80.457-97.381
		c19.406-23.517,30.496-36.955,30.496-36.955s-11.229,13.321-30.881,36.634c-19.641,23.323-47.697,56.642-81.363,96.625
		C1001.551,227.819,962.371,274.548,920.393,324.614z"/>
</g>
<g id="Layer_48">
	<path fill="#FFFFFF" d="M750.405,428.406c0-8.199-4.101-12.6-11.201-12.6h-9.5v25.502h9.101
		C746.405,441.308,750.405,436.806,750.405,428.406z"/>
</g>
<g id="Layer_47">
	<path fill="#FFFFFF" d="M888.25,550.906c0-8.199-4.101-12.6-11.201-12.6h-9.5v25.502h9.101
		C884.25,563.809,888.25,559.307,888.25,550.906z"/>
</g>
<g id="Layer_46">
	<path fill="#FFFFFF" d="M1220.77,394.84H449.998L367,493.039h771.314L1220.77,394.84z M607.807,480.41
		c-13.2,0-19.901-13.4-19.901-36.102c0-22.602,6.801-36.103,20.002-36.103c13.2,0,20.001,13.402,20.001,36.103
		C627.909,466.91,621.008,480.41,607.807,480.41z M655.408,479.31h-6.801l-16.401-70.004h7.101l9.301,42.602
		c1.4,6.5,2.601,13.201,3.4,18.4c0.8-5.199,2.1-12,3.5-18.4l9.301-42.602h7L655.408,479.31z M713.707,479.31h-31.103v-70.004h29.902
		v6.5h-22.901v22.801h14.4v6.6h-14.4v27.604h24.102V479.31z M749.905,479.31l-10.501-31.803c-0.899,0.1-8.4,0.1-9.7,0.1v31.703
		h-7.001v-70.004h16.802c10.101,0,17.9,6,17.9,18.702c0,9.199-4.3,15.1-10.8,17.801l11,33.502H749.905z M829.405,479.31h-6.501
		l-6.3-34.502c-1.101-6.002-2.7-16.301-3.301-22.701c-0.6,6.4-2.2,16.801-3.3,22.701l-6.301,34.502h-6.3l-10.701-70.004h6.7
		l5.601,40.903c0.7,4.799,1.601,12.199,1.9,16.201c0.4-4.002,1.7-11.502,2.5-16.201l7.101-40.903h5.9l7.2,40.903
		c0.8,4.699,2,12.199,2.4,16.201c0.4-4.002,1.2-11.402,1.9-16.201l5.6-40.903h6.701L829.405,479.31z M875.502,479.31l-4.101-18.201
		h-18.301L848.9,479.31H842l16.602-70.004h7.4l16.601,70.004H875.502z M917.702,415.707H903.5v63.604h-6.9v-63.604H882.5v-6.401
		h35.202V415.707z M959,479.31h-31.103v-70.004H957.8v6.5h-22.901v22.801h14.4v6.6h-14.4v27.604H959V479.31z M995.199,479.31
		l-10.502-31.803c-0.898,0.1-8.4,0.1-9.699,0.1v31.703h-7.002v-70.004h16.803c10.1,0,17.9,6,17.9,18.702
		c0,9.199-4.301,15.1-10.801,17.801l11,33.502H995.199z"/>
</g>
<g id="Layer_45">
	<path fill="#FFFFFF" d="M788.051,538.307h-6.3v57.004h6.2c9.601,0,15.601-7.9,15.601-28.703
		C803.552,547.506,798.252,538.307,788.051,538.307z"/>
</g>
<g id="Layer_44">
	<path fill="#FFFFFF" d="M862.202,418.005c-0.7,5.201-2.301,12.701-3.801,19.201l-3.9,17.402h15.401l-3.9-17.502
		C864.501,430.507,863.001,423.207,862.202,418.005z"/>
</g>
<g id="Layer_43">
	<path fill="#FFFFFF" d="M607.708,414.706c-7.801,0-12.801,10-12.801,29.602c0,19.5,5.2,29.602,13.101,29.602
		c7.801,0,12.9-10.002,12.9-29.602C620.908,424.806,615.608,414.706,607.708,414.706z"/>
</g>
<g id="Layer_42">
	<path fill="#FFFFFF" d="M995.699,428.406c0-8.199-4.102-12.6-11.201-12.6h-9.5v25.502h9.1
		C991.699,441.308,995.699,436.806,995.699,428.406z"/>
</g>
<g id="Layer_41">
	<path fill="#FFFFFF" d="M525.496,517.375l-82.998,98.2h771.314l82.453-98.2H525.496z M714.655,580.809
		c0,14.002-6.701,22.102-18.302,22.102c-11.501,0-18.101-8-18.101-22.002v-49.102h6.9v48.903c0,10.1,4,15.701,11.5,15.701
		c7.4,0,11.001-5.5,11.001-15.602v-49.002h7.001V580.809z M762.753,601.811h-5.9l-16.801-38.402c-2.5-5.801-5.5-12.801-7.2-17.201
		c0,2.699,0.1,9.4,0.1,13.6v42.004h-6.601v-70.004h6.801l15.901,36.602c2.7,6.301,5.7,13.301,7.3,17.201
		c-0.1-2.6-0.2-9.4-0.2-13.602v-40.202h6.601V601.811z M787.251,601.811H774.75v-70.004h13.602
		c14.801,0,22.201,11.901,22.201,34.502C810.553,590.809,801.752,601.811,787.251,601.811z M851.552,601.811H820.45v-70.004h29.902
		v6.5h-22.901v22.801h14.4v6.6h-14.4v27.604h24.102V601.811z M887.75,601.811l-10.501-31.803c-0.899,0.1-8.4,0.1-9.7,0.1v31.703
		h-7.001v-70.004h16.802c10.101,0,17.9,6,17.9,18.702c0,9.199-4.3,15.1-10.8,17.801l11,33.502H887.75z M957.85,538.307h-22.802
		v23.602h14.601v6.6h-14.601v33.303h-7.001v-70.004h29.803V538.307z M975.848,601.811h-7v-70.004h7V601.811z M1013.549,601.811
		l-10.502-31.803c-0.898,0.1-8.4,0.1-9.699,0.1v31.703h-7.002v-70.004h16.803c10.1,0,17.9,6,17.9,18.702
		c0,9.199-4.301,15.1-10.801,17.801l11,33.502H1013.549z M1061.949,601.811h-31.104v-70.004h29.902v6.5h-22.9v22.801h14.4v6.6h-14.4
		v27.604h24.102V601.811z"/>
</g>
<g id="Layer_40">
	<path fill="#FFFFFF" d="M1014.049,550.906c0-8.199-4.102-12.6-11.201-12.6h-9.5v25.502h9.1
		C1010.049,563.809,1014.049,559.307,1014.049,550.906z"/>
</g>
<g id="Layer_39">
	<polygon fill="#FFFFFF" points="955.386,640.865 1186.576,640.865 1161.846,670.32 930.492,670.32 	"/>
</g>
<g id="Layer_38">
	<path opacity="0.6" fill="#FFFFFF" d="M862.346,418.297c-0.701,5.2-2.301,12.701-3.801,19.201l-3.9,17.401h15.4l-3.9-17.501
		C864.645,430.798,863.145,423.498,862.346,418.297z"/>
</g>
<g id="Layer_37">
	<path opacity="0.6" fill="#FFFFFF" d="M888.395,551.197c0-8.199-4.102-12.6-11.201-12.6h-9.5V564.1h9.1
		C884.395,564.1,888.395,559.598,888.395,551.197z"/>
</g>
<g id="Layer_36">
	<path opacity="0.6" fill="#FFFFFF" d="M750.549,428.698c0-8.2-4.102-12.601-11.201-12.601h-9.5v25.502h9.1
		C746.549,441.599,750.549,437.098,750.549,428.698z"/>
</g>
<g id="Layer_35">
	<path opacity="0.6" fill="#FFFFFF" d="M607.852,414.998c-7.801,0-12.801,10-12.801,29.602c0,19.501,5.2,29.602,13.101,29.602
		c7.801,0,12.9-10.001,12.9-29.602C621.052,425.098,615.752,414.998,607.852,414.998z"/>
</g>
<g id="Layer_34">
	<path opacity="0.6" fill="#FFFFFF" d="M995.842,428.698c0-8.2-4.1-12.601-11.201-12.601h-9.5v25.502h9.102
		C991.842,441.599,995.842,437.098,995.842,428.698z"/>
</g>
<g id="Layer_33">
	<path opacity="0.6" fill="#FFFFFF" d="M788.196,538.598h-6.301v57.004h6.201c9.6,0,15.6-7.9,15.6-28.703
		C803.696,547.797,798.397,538.598,788.196,538.598z"/>
</g>
<g id="Layer_32">
	<path opacity="0.6" fill="#FFFFFF" d="M1014.191,551.197c0-8.199-4.1-12.6-11.201-12.6h-9.5V564.1h9.102
		C1010.191,564.1,1014.191,559.598,1014.191,551.197z"/>
</g>
<g id="Layer_31">
	<path fill="#FFFFFF" d="M733.774,548.174c-0.254,0.305-0.508,0.609-0.76,0.914c0.012,1.309,0.027,2.816,0.041,4.357
		c0.643-0.768,1.285-1.537,1.928-2.307C734.551,550.096,734.145,549.102,733.774,548.174z"/>
</g>
<g id="Layer_30">
	<path fill="#FFFFFF" d="M739.399,545.855c17.229-20.616,34.619-41.425,52.014-62.238c1.912-2.299,3.826-4.597,5.738-6.895
		l-0.6-3.926c-2.479,2.967-4.959,5.935-7.439,8.902c-17.045,20.476-34.09,40.95-50.98,61.24L739.399,545.855z"/>
</g>
<g id="Layer_29">
	<path fill="#FFFFFF" d="M678.795,531.805h3.609c14.482-17.326,29.148-34.871,43.879-52.496h-3.438v-0.427
		C708.053,496.655,693.331,514.344,678.795,531.805z"/>
</g>
<g id="Layer_28">
	<path fill="#FFFFFF" d="M726.495,556.918c-3.908,4.695-7.811,9.381-11.695,14.049v4.324c3.887-4.65,7.785-9.316,11.695-13.994
		V556.918z"/>
</g>
<g id="Layer_27">
	<path fill="#FFFFFF" d="M931.276,479.309c-14.992,17.938-30.129,36.051-45.307,54.213c0.916,0.419,1.775,0.927,2.584,1.503
		c15.541-18.67,31.039-37.286,46.379-55.716H931.276z"/>
</g>
<g id="Layer_26">
	<path fill="#FFFFFF" d="M820.594,531.805h0.129c3.518-4.21,7.037-8.421,10.555-12.633c14.021-16.841,28.041-33.678,41.988-50.43
		l-0.797-3.535c-14.443,17.284-28.967,34.665-43.492,52.047c-7.371,8.854-14.74,17.706-22.102,26.546
		c0.445,0.98,0.854,2.016,1.221,3.113c4.164-4.98,8.33-9.967,12.498-14.955V531.805z"/>
</g>
<g id="Layer_25">
	<path fill="#FFFFFF" d="M762.897,601.008c3.99-4.775,7.988-9.561,11.998-14.357v-4.439c-4.01,4.816-8.008,9.617-11.998,14.412
		V601.008z"/>
</g>
<g id="Layer_24">
	<path fill="#FFFFFF" d="M729.848,475.045c4.486-5.367,8.977-10.74,13.471-16.116l-1.098-3.325
		c-4.127,4.958-8.252,9.914-12.373,14.865V475.045z"/>
</g>
<g id="Layer_23">
	<path fill="#FFFFFF" d="M707.797,580.809v-1.43c-4.656,5.592-9.289,11.158-13.904,16.701c0.902,0.211,1.867,0.328,2.904,0.328
		c0.127,0,0.244-0.014,0.367-0.018c3.49-4.176,6.99-8.361,10.504-12.568C707.749,582.865,707.797,581.867,707.797,580.809z"/>
</g>
<g id="Layer_22">
	<path fill="#FFFFFF" d="M860.692,563.811c-8.756,10.518-17.502,21.023-26.223,31.498h3.766c7.471-8.938,14.961-17.9,22.457-26.869
		V563.811z"/>
</g>
<g id="Layer_21">
	<path fill="#FFFFFF" d="M801.711,550.002c-6.619,7.951-13.227,15.887-19.816,23.803v4.467c6.879-8.232,13.777-16.488,20.689-24.76
		C802.336,552.264,802.045,551.094,801.711,550.002z"/>
</g>
<g id="Layer_20">
	<path fill="#FFFFFF" d="M806.333,465.695c3.893-4.677,7.783-9.351,11.67-14.019l-0.682-3.731
		c-3.303,3.951-6.605,7.905-9.914,11.862L806.333,465.695z"/>
</g>
<g id="Layer_19">
	<path fill="#FFFFFF" d="M830.52,432.151c-2.736,3.275-5.477,6.554-8.219,9.836l0.656,3.735c2.279-2.736,4.555-5.47,6.828-8.202
		L830.52,432.151z"/>
</g>
<g id="Layer_18">
	<path fill="#FFFFFF" d="M903.645,432.253c4.609-5.536,9.199-11.05,13.777-16.548h-3.59c-3.387,4.055-6.783,8.118-10.188,12.193
		V432.253z"/>
</g>
<g id="Layer_17">
	<path fill="#FFFFFF" d="M499.473,832.135c13.671-16.25,29.094-34.582,45.918-54.58c33.583-40.055,72.763-86.783,114.741-136.85
		c10.494-12.557,21.164-25.324,31.962-38.246c-0.984-0.209-1.92-0.494-2.807-0.846c-10.523,12.641-20.924,25.135-31.155,37.424
		c-41.721,50.281-80.661,97.211-114.038,137.436c-16.655,20.141-31.922,38.604-45.454,54.967
		c-13.516,16.379-25.298,30.656-35.001,42.416c-19.407,23.518-30.496,36.955-30.496,36.955s11.23-13.32,30.884-36.633
		C473.854,862.521,485.786,848.369,499.473,832.135z"/>
</g>
<g id="Layer_16">
	<path fill="#FFFFFF" d="M689.18,689.229c23.668-28.324,48.162-57.639,73.047-87.42h-3.648
		c-24.318,29.207-48.254,57.955-71.396,85.752c-45.174,54.42-87.336,105.213-123.475,148.748
		C491.613,923.535,443.55,981.686,443.55,981.686s48.581-57.719,121.454-144.295C601.348,794.025,643.75,743.434,689.18,689.229z"/>
</g>
<g id="Layer_15">
	<path fill="#FFFFFF" d="M747.774,448.932l1.1,3.351c0.697-0.835,1.395-1.669,2.092-2.503
		c41.211-49.512,82.422-99.025,121.055-145.443c38.555-46.485,74.539-89.871,105.382-127.059
		c15.389-18.622,29.494-35.692,41.998-50.823c12.486-15.144,23.373-28.346,32.338-39.219c17.93-21.745,28.174-34.171,28.174-34.171
		s-10.385,12.309-28.561,33.85c-9.086,10.771-20.121,23.849-32.779,38.85c-12.641,15.015-26.902,31.955-42.461,50.436
		c-31.048,37.016-67.273,80.202-106.085,126.472c-38.732,46.337-80.047,95.763-121.361,145.189
		C748.368,448.218,748.071,448.576,747.774,448.932z"/>
</g>
<g id="Layer_14">
	<path fill="#FFFFFF" d="M878.694,462.222c6.035-7.248,12.053-14.477,18.051-21.681v-4.385c-6.27,7.503-12.562,15.034-18.875,22.588
		L878.694,462.222z"/>
</g>
<g id="Layer_13">
	<path fill="#FFFFFF" d="M1218.986,224.023c-9.086,10.771-20.121,23.849-32.779,38.85c-12.641,15.015-26.902,31.956-42.461,50.436
		c-31.049,37.016-67.273,80.201-106.086,126.472c-25.672,30.711-52.479,62.782-79.666,95.308v3.216h-2.689
		c-6.559,7.848-13.139,15.719-19.729,23.602h3.816c34.214-41.107,68.13-81.855,100.261-120.461
		c38.555-46.485,74.539-89.871,105.383-127.06c15.389-18.621,29.494-35.692,41.998-50.822
		c12.486-15.144,23.373-28.346,32.338-39.219c17.93-21.745,28.174-34.171,28.174-34.171S1237.162,202.482,1218.986,224.023z"/>
</g>
<g id="Layer_12">
	<path fill="#FFFFFF" d="M928.192,570.742c-3.963,4.74-7.928,9.484-11.893,14.227c-41.211,49.514-82.42,99.025-121.057,145.443
		c-38.555,46.484-74.539,89.871-105.383,127.059c-15.389,18.621-29.495,35.691-41.997,50.822
		c-12.486,15.145-23.372,28.348-32.337,39.221c-17.929,21.746-28.174,34.172-28.174,34.172s10.386-12.309,28.562-33.85
		c9.088-10.77,20.123-23.848,32.781-38.848c12.641-15.016,26.903-31.957,42.461-50.436c31.049-37.018,67.273-80.203,106.086-126.473
		c38.73-46.338,80.045-95.766,121.357-145.191c3.197-3.842,6.395-7.682,9.592-11.523V570.742z"/>
</g>
<g id="Layer_11">
	<path fill="#FFFFFF" d="M741.067,711.578c29.518-35.318,60.422-72.301,91.736-109.77h-3.744
		c-30.717,36.898-61.023,73.305-89.992,108.104c-41.721,50.281-80.661,97.209-114.039,137.434
		c-16.655,20.141-31.922,38.604-45.454,54.969c-13.516,16.377-25.298,30.656-35.001,42.414
		c-19.407,23.518-30.496,36.957-30.496,36.957s11.23-13.322,30.884-36.633c9.826-11.656,21.759-25.811,35.445-42.045
		c13.671-16.248,29.094-34.58,45.919-54.58C659.908,808.375,699.088,761.645,741.067,711.578z"/>
</g>
<g id="Layer_10">
	<path fill="#FFFFFF" d="M481.061,771.879c12.641-15.016,26.902-31.955,42.461-50.436c31.049-37.016,67.273-80.201,106.086-126.473
		c15.887-19.006,32.212-38.537,48.79-58.371v-4.314c-17.266,20.744-34.264,41.166-50.789,61.019
		c-38.555,46.484-74.54,89.869-105.384,127.057c-15.388,18.623-29.494,35.693-41.996,50.824
		c-12.486,15.143-23.372,28.346-32.337,39.219c-17.929,21.746-28.174,34.172-28.174,34.172s10.386-12.309,28.562-33.848
		C457.367,799.957,468.402,786.881,481.061,771.879z"/>
</g>
<g id="Layer_9">
	<path fill="#FFFFFF" d="M975.141,431.008c4.156-4.993,8.299-9.97,12.412-14.911c-0.906-0.187-1.873-0.292-2.912-0.292h-0.293
		c-3.057,3.657-6.127,7.332-9.207,11.018V431.008z"/>
</g>
<g id="Layer_8">
	<path fill="#FFFFFF" d="M968.141,435.199c-10.373,12.411-20.861,24.961-31.431,37.61h3.635
		c9.34-11.221,18.613-22.359,27.796-33.392V435.199z"/>
</g>
<g id="Layer_7">
	<path fill="#FFFFFF" d="M881.43,538.953c-3.795,4.539-7.588,9.078-11.385,13.619c-0.783,0.943-1.568,1.885-2.352,2.826v4.662
		c1.551-1.855,3.102-3.711,4.652-5.568c3.928-4.719,7.855-9.436,11.781-14.152C883.333,539.748,882.43,539.287,881.43,538.953z"/>
</g>
<g id="Layer_6">
	<path fill="#FFFFFF" d="M971.076,347.2c-17.355,20.771-35.158,42.075-53.23,63.704v4.293c18.758-22.53,37.232-44.721,55.226-66.333
		c45.172-54.42,87.334-105.212,123.473-148.749c72.098-87.224,120.16-145.374,120.16-145.374s-48.58,57.718-121.451,144.296
		C1058.91,242.402,1016.508,292.995,971.076,347.2z"/>
</g>
<g id="Layer_5">
	<path fill="#FFFFFF" d="M1117.361,259.717c33.293-40.296,61.035-73.875,80.457-97.381c19.406-23.517,30.496-36.955,30.496-36.955
		s-11.229,13.321-30.883,36.634c-19.639,23.323-47.695,56.642-81.361,96.625c-33.584,40.054-72.764,86.783-114.742,136.85
		c-3.947,4.723-7.926,9.483-11.92,14.263c0.963,0.193,1.896,0.443,2.787,0.77c3.727-4.478,7.441-8.94,11.127-13.368
		C1045.045,346.872,1083.984,299.942,1117.361,259.717z"/>
</g>
<g id="Layer_4">
	<path fill="#FFFFFF" d="M920.393,324.614c-26.498,31.707-54.115,64.752-82.141,98.286l-0.844,5.462
		c29-34.836,57.59-69.181,84.98-102.084c41.72-50.281,80.66-97.21,114.037-137.435c33.293-40.296,61.035-73.875,80.457-97.381
		c19.406-23.517,30.496-36.955,30.496-36.955s-11.229,13.321-30.881,36.634c-19.641,23.323-47.697,56.642-81.363,96.625
		C1001.551,227.819,962.371,274.548,920.393,324.614z"/>
</g>
<g id="Layer_3">
	<g>
		<path fill="#FFFFFF" d="M750.405,428.406c0-8.199-4.101-12.6-11.201-12.6h-9.5v25.502h9.101
			C746.405,441.308,750.405,436.806,750.405,428.406z"/>
		<path fill="#FFFFFF" d="M1220.77,394.84H449.998L367,493.039h771.314L1220.77,394.84z M607.807,480.41
			c-13.2,0-19.901-13.4-19.901-36.102c0-22.602,6.801-36.103,20.002-36.103c13.2,0,20.001,13.402,20.001,36.103
			C627.909,466.91,621.008,480.41,607.807,480.41z M655.408,479.31h-6.801l-16.401-70.004h7.101l9.301,42.602
			c1.4,6.5,2.601,13.201,3.4,18.4c0.8-5.199,2.1-12,3.5-18.4l9.301-42.602h7L655.408,479.31z M713.707,479.31h-31.103v-70.004
			h29.902v6.5h-22.901v22.801h14.4v6.6h-14.4v27.604h24.102V479.31z M749.905,479.31l-10.501-31.803c-0.899,0.1-8.4,0.1-9.7,0.1
			v31.703h-7.001v-70.004h16.802c10.101,0,17.9,6,17.9,18.702c0,9.199-4.3,15.1-10.8,17.801l11,33.502H749.905z M829.405,479.31
			h-6.501l-6.3-34.502c-1.101-6.002-2.7-16.301-3.301-22.701c-0.6,6.4-2.2,16.801-3.3,22.701l-6.301,34.502h-6.3l-10.701-70.004h6.7
			l5.601,40.903c0.7,4.799,1.601,12.199,1.9,16.201c0.4-4.002,1.7-11.502,2.5-16.201l7.101-40.903h5.9l7.2,40.903
			c0.8,4.699,2,12.199,2.4,16.201c0.4-4.002,1.2-11.402,1.9-16.201l5.6-40.903h6.701L829.405,479.31z M875.502,479.31l-4.101-18.201
			h-18.301L848.9,479.31H842l16.602-70.004h7.4l16.601,70.004H875.502z M917.702,415.707H903.5v63.604h-6.9v-63.604H882.5v-6.401
			h35.202V415.707z M959,479.31h-31.103v-70.004H957.8v6.5h-22.901v22.801h14.4v6.6h-14.4v27.604H959V479.31z M995.199,479.31
			l-10.502-31.803c-0.898,0.1-8.4,0.1-9.699,0.1v31.703h-7.002v-70.004h16.803c10.1,0,17.9,6,17.9,18.702
			c0,9.199-4.301,15.1-10.801,17.801l11,33.502H995.199z"/>
		<path fill="#FFFFFF" d="M862.202,418.005c-0.7,5.201-2.301,12.701-3.801,19.201l-3.9,17.402h15.401l-3.9-17.502
			C864.501,430.507,863.001,423.207,862.202,418.005z"/>
		<path fill="#FFFFFF" d="M607.708,414.706c-7.801,0-12.801,10-12.801,29.602c0,19.5,5.2,29.602,13.101,29.602
			c7.801,0,12.9-10.002,12.9-29.602C620.908,424.806,615.608,414.706,607.708,414.706z"/>
		<path fill="#FFFFFF" d="M995.699,428.406c0-8.199-4.102-12.6-11.201-12.6h-9.5v25.502h9.1
			C991.699,441.308,995.699,436.806,995.699,428.406z"/>
	</g>
</g>
<g id="Layer_2">
	<g>
		<path fill="#FFFFFF" d="M888.25,550.906c0-8.199-4.101-12.6-11.201-12.6h-9.5v25.502h9.101
			C884.25,563.809,888.25,559.307,888.25,550.906z"/>
		<path fill="#FFFFFF" d="M788.051,538.307h-6.3v57.004h6.2c9.601,0,15.601-7.9,15.601-28.703
			C803.552,547.506,798.252,538.307,788.051,538.307z"/>
		<path fill="#FFFFFF" d="M525.496,517.375l-82.998,98.2h771.314l82.453-98.2H525.496z M714.655,580.809
			c0,14.002-6.701,22.102-18.302,22.102c-11.501,0-18.101-8-18.101-22.002v-49.102h6.9v48.903c0,10.1,4,15.701,11.5,15.701
			c7.4,0,11.001-5.5,11.001-15.602v-49.002h7.001V580.809z M762.753,601.811h-5.9l-16.801-38.402c-2.5-5.801-5.5-12.801-7.2-17.201
			c0,2.699,0.1,9.4,0.1,13.6v42.004h-6.601v-70.004h6.801l15.901,36.602c2.7,6.301,5.7,13.301,7.3,17.201
			c-0.1-2.6-0.2-9.4-0.2-13.602v-40.202h6.601V601.811z M787.251,601.811H774.75v-70.004h13.602
			c14.801,0,22.201,11.901,22.201,34.502C810.553,590.809,801.752,601.811,787.251,601.811z M851.552,601.811H820.45v-70.004h29.902
			v6.5h-22.901v22.801h14.4v6.6h-14.4v27.604h24.102V601.811z M887.75,601.811l-10.501-31.803c-0.899,0.1-8.4,0.1-9.7,0.1v31.703
			h-7.001v-70.004h16.802c10.101,0,17.9,6,17.9,18.702c0,9.199-4.3,15.1-10.8,17.801l11,33.502H887.75z M957.85,538.307h-22.802
			v23.602h14.601v6.6h-14.601v33.303h-7.001v-70.004h29.803V538.307z M975.848,601.811h-7v-70.004h7V601.811z M1013.549,601.811
			l-10.502-31.803c-0.898,0.1-8.4,0.1-9.699,0.1v31.703h-7.002v-70.004h16.803c10.1,0,17.9,6,17.9,18.702
			c0,9.199-4.301,15.1-10.801,17.801l11,33.502H1013.549z M1061.949,601.811h-31.104v-70.004h29.902v6.5h-22.9v22.801h14.4v6.6
			h-14.4v27.604h24.102V601.811z"/>
		<path fill="#FFFFFF" d="M1014.049,550.906c0-8.199-4.102-12.6-11.201-12.6h-9.5v25.502h9.1
			C1010.049,563.809,1014.049,559.307,1014.049,550.906z"/>
	</g>
</g>
</svg>
